<?xml version="1.0" standalone="no"?>
<!DOCTYPE svg PUBLIC "-//W3C//DTD SVG 20010904//EN"
"http://www.w3.org/TR/2001/REC-SVG-20010904/DTD/svg10.dtd">
<svg version="1.0" xmlns="http://www.w3.org/2000/svg"
width="700pt" height="700pt"  viewBox="0 0 500.000000 500.000000"
preserveAspectRatio="xMidYMid meet">

<g transform="translate(0.000000,500.000000) scale(0.100000,-0.100000)"
fill="#000000" stroke="#000000" stroke-width="15">

<path d="M2353 4266 c-219 -42 -360 -130 -418 -261 -30 -68 -58 -180 -57 -233
l0 -44 -58 7 c-69 8 -116 -11 -126 -52 -9 -33 3 -217 16 -264 16 -58 42 -74
118 -74 l65 0 73 -80 73 -79 -39 -33 c-55 -47 -74 -104 -67 -198 6 -87 -3 -96
-69 -58 -23 13 -65 26 -92 30 l-51 6 -54 -84 c-30 -46 -63 -101 -73 -121 -17
-36 -18 -37 -64 -31 -44 5 -49 3 -66 -22 -35 -53 -12 -135 38 -135 10 0 18 -4
18 -8 0 -14 -40 -52 -54 -52 -7 0 -25 -11 -40 -25 -28 -26 -35 -79 -16 -114
17 -32 62 -44 103 -28 34 15 35 14 46 -9 6 -13 22 -29 35 -35 20 -10 31 -8 60
9 l35 21 15 -23 c8 -13 28 -29 44 -35 39 -16 81 2 101 43 12 25 11 33 -3 62
-15 33 -15 34 7 34 29 0 65 32 73 66 5 18 0 34 -15 54 -29 41 -27 75 8 106 17
15 42 43 56 64 28 40 58 55 73 36 5 -6 12 -35 14 -64 6 -65 30 -101 84 -126
33 -15 41 -24 40 -45 0 -14 3 -35 7 -47 6 -18 1 -22 -47 -37 l-54 -17 5 -145
c7 -164 -3 -203 -57 -225 -41 -17 -87 -71 -101 -120 -12 -38 -11 -42 18 -78
16 -20 59 -52 94 -70 61 -32 68 -34 158 -30 69 2 96 7 99 17 2 7 33 52 68 98
42 55 64 94 64 112 0 14 7 36 15 49 14 19 14 33 4 105 -11 81 -11 85 11 115
17 23 21 39 17 65 l-5 34 42 -4 c26 -3 56 1 80 11 22 9 41 14 44 11 14 -14 2
-96 -18 -122 -25 -35 -20 -70 16 -104 21 -20 24 -31 24 -102 0 -64 4 -84 20
-104 11 -14 20 -35 20 -47 0 -13 32 -54 86 -109 l86 -87 68 0 c111 0 214 60
261 152 l20 39 -26 45 c-28 47 -71 81 -117 91 -16 3 -28 9 -28 14 0 5 -9 18
-19 28 -16 16 -23 47 -34 159 -8 77 -18 145 -21 151 -4 6 -22 11 -41 11 -55 0
-66 8 -60 44 5 25 1 36 -19 55 -14 14 -26 28 -26 32 0 4 18 29 40 55 22 27 56
81 76 121 20 40 37 73 39 73 1 0 20 -7 41 -16 26 -11 53 -14 81 -10 34 4 43 2
43 -9 0 -8 14 -30 31 -50 52 -59 78 -52 179 53 106 110 128 125 172 117 47 -9
88 24 88 69 0 17 -5 37 -12 44 -9 9 -2 12 34 12 37 0 50 5 62 22 37 53 1 138
-59 138 -24 0 -25 3 -20 33 9 44 -24 87 -66 87 -26 0 -29 3 -29 31 0 42 -14
64 -50 79 -60 25 -125 -31 -119 -103 2 -18 -3 -42 -9 -54 l-12 -22 -26 26
c-18 18 -33 24 -54 21 l-28 -4 22 45 c30 60 44 105 56 177 5 32 16 64 25 70
60 44 58 236 -3 285 -21 16 -27 32 -33 84 -9 73 -44 148 -95 204 -71 80 -237
167 -399 211 -103 28 -353 37 -462 16z m283 -19 c7 -9 76 -155 93 -199 22 -55
25 -58 60 -59 20 0 56 -4 81 -8 31 -6 -7 -9 -123 -9 -183 -2 -299 -17 -430
-58 -68 -22 -88 -34 -133 -78 -63 -64 -74 -96 -81 -238 -3 -60 -9 -108 -12
-108 -22 0 -31 31 -31 103 0 97 -19 96 -21 -1 -1 -52 -3 -60 -9 -37 l-8 30 -1
-30 c-3 -57 -41 -75 -41 -20 0 37 -29 116 -56 152 -20 26 -22 36 -14 57 15 41
48 32 86 -23 21 -29 24 -31 19 -11 -10 35 -23 49 -67 71 -21 11 -38 22 -38 25
0 3 7 37 16 77 20 91 65 177 117 223 74 68 243 126 413 143 71 7 173 6 180 -2z
m331 -283 c-3 -3 -12 -4 -19 -1 -8 3 -5 6 6 6 11 1 17 -2 13 -5z m53 -30 c130
-20 181 -38 220 -79 33 -34 34 -39 40 -133 13 -243 -25 -425 -120 -569 -26
-40 -27 -43 -5 -18 36 42 82 124 105 187 19 51 19 51 14 13 -14 -96 -94 -210
-182 -258 -87 -48 -183 -65 -411 -77 -114 -5 -230 -7 -257 -4 -86 10 -166 42
-227 90 -56 44 -58 46 -41 65 18 20 18 26 -11 189 -22 121 -25 328 -6 394 17
59 73 119 135 147 54 24 200 58 296 69 97 11 329 3 450 -16z m324 -232 c14
-48 17 -92 7 -92 -6 0 -11 -8 -12 -17 -1 -33 -16 18 -23 79 -5 48 -4 56 9 52
8 -3 16 -13 19 -22z m-1541 -43 c10 -28 16 -70 16 -93 -1 -35 -3 -32 -10 21
-4 34 -15 75 -24 92 -8 17 -12 31 -7 31 5 0 16 -23 25 -51z m75 23 c32 -42 52
-200 33 -270 -11 -38 -15 -43 -34 -38 -12 3 -29 6 -38 6 -14 0 -16 6 -8 38 13
58 10 184 -6 238 -8 27 -15 50 -15 52 0 9 57 -13 68 -26z m-94 -60 c9 -25 16
-75 15 -111 l-1 -66 -13 93 c-12 93 -24 120 -44 108 -27 -17 0 -211 29 -211 8
0 18 -4 22 -9 6 -10 13 10 21 64 3 14 5 5 6 -20 1 -67 -7 -90 -35 -90 -16 0
-28 9 -38 28 -19 37 -38 236 -25 270 9 24 10 24 29 7 10 -9 26 -38 34 -63z
m155 -7 c0 -5 -4 -3 -9 5 -5 8 -9 22 -9 30 0 16 17 -16 18 -35z m1546 -331 c9
-4 21 -18 26 -31 11 -30 -18 -103 -57 -144 -30 -31 -29 -65 1 -85 20 -13 21
-12 17 21 -3 25 0 36 12 41 9 3 23 21 32 40 18 38 55 54 79 34 33 -28 10 -90
-34 -90 -23 0 -32 -7 -45 -34 -18 -39 -21 -66 -6 -66 22 0 93 42 115 68 20 23
26 25 47 15 29 -13 39 -39 27 -71 -11 -28 -53 -49 -71 -34 -30 24 -99 -29 -97
-75 0 -15 2 -14 9 5 11 27 45 29 59 4 21 -40 -44 -83 -76 -51 -8 8 -21 4 -46
-15 -34 -26 -37 -26 -71 -12 -20 8 -36 19 -36 23 1 19 20 35 56 48 36 13 37
14 11 15 -24 0 -26 2 -17 19 5 11 10 26 10 33 -1 7 -9 -3 -18 -22 -13 -27 -24
-36 -49 -38 -26 -3 -36 3 -58 32 -26 34 -26 37 -12 60 15 23 15 26 -4 50 -11
14 -27 26 -34 26 -16 0 -45 27 -45 41 0 18 49 59 70 59 13 0 25 -10 33 -27 6
-16 18 -34 25 -42 7 -7 11 -20 8 -27 -18 -44 -15 -46 15 -14 19 19 31 39 27
45 -13 15 -9 52 7 65 10 9 13 24 8 55 -4 35 -2 46 16 64 22 22 38 25 66 15z
m-1365 -164 l35 -30 -33 16 c-22 11 -42 13 -65 8 -17 -4 -34 -8 -37 -9 -3 0
-11 -4 -19 -9 -10 -7 -12 -5 -6 5 33 58 74 64 125 19z m1070 -52 c0 -18 32
-48 50 -48 19 0 32 -21 22 -36 -4 -5 -26 -22 -49 -37 -23 -15 -49 -40 -58 -57
-13 -26 -19 -29 -48 -23 -17 3 -34 7 -35 9 -2 1 5 28 17 59 12 31 21 65 21 76
0 11 14 33 32 49 30 28 48 31 48 8z m-865 -73 c31 -10 65 -30 90 -55 l40 -39
205 10 c113 5 220 7 238 4 35 -6 42 8 21 47 -22 41 1 28 30 -17 26 -42 30 -55
25 -98 -9 -92 -75 -260 -123 -317 l-22 -25 16 40 c9 22 22 49 29 60 18 28 25
73 16 106 -7 22 -4 30 12 41 15 10 19 20 13 37 -10 31 -59 26 -63 -7 -2 -13
-8 -20 -14 -16 -15 10 -100 6 -173 -7 -74 -13 -127 -43 -208 -118 -64 -60
-113 -91 -144 -91 -10 0 5 13 32 29 55 31 98 72 60 56 -99 -41 -200 -58 -231
-37 -46 30 -33 96 32 155 34 31 38 40 42 93 4 68 -23 154 -65 205 l-26 30 59
-36 c33 -19 81 -42 109 -50z m751 0 c-14 -55 -40 -110 -56 -120 -13 -8 -13 -4
5 39 8 19 16 53 17 75 1 29 7 42 22 49 12 5 22 9 23 8 1 -1 -4 -24 -11 -51z
m-925 4 c15 -16 39 -54 53 -82 22 -44 24 -58 16 -92 -9 -39 -40 -75 -64 -75
-23 0 -26 13 -6 27 29 21 27 89 -4 128 -28 35 -83 40 -116 10 -20 -18 -20 -18
-20 22 0 89 82 125 141 62z m-26 -104 c29 -28 34 -85 10 -105 -12 -10 -15 -10
-15 0 0 32 -34 79 -63 90 -31 11 -31 12 -13 26 29 20 54 17 81 -11z m1207 -61
l28 -31 -66 -63 c-58 -56 -67 -61 -81 -48 -10 10 -16 39 -18 86 l-2 70 38 23
c21 13 39 29 39 34 1 6 9 -1 18 -15 9 -13 29 -39 44 -56z m-1424 -31 l54 -56
-30 -12 c-18 -8 -33 -25 -40 -43 -10 -30 -11 -31 -49 -20 -21 6 -70 16 -110
22 l-72 11 45 67 c76 115 117 121 202 31z m147 61 c17 -7 45 -54 45 -77 0 -9
-18 -19 -44 -26 -24 -6 -50 -13 -57 -16 -9 -3 -28 13 -52 44 l-37 50 38 10
c38 10 72 18 84 20 3 0 14 -2 23 -5z m1068 -35 c49 -13 67 -47 43 -83 -21 -32
-57 -42 -106 -27 -54 16 -64 32 -50 75 15 48 40 55 113 35z m-1566 -175 c2 -7
18 -16 35 -19 24 -6 33 -3 45 15 13 18 22 21 55 17 21 -3 45 -11 53 -17 22
-18 18 -60 -7 -89 l-22 -26 24 22 24 23 13 -28 c12 -25 12 -24 7 18 -2 25 -1
51 4 58 13 20 42 11 63 -18 16 -21 17 -31 9 -60 -9 -32 -8 -37 15 -53 29 -21
32 -48 9 -71 -36 -36 -81 -5 -54 38 13 20 12 20 -11 5 -30 -20 -39 -88 -14
-109 20 -16 19 -64 -1 -85 -20 -20 -63 -16 -78 7 -7 12 -7 27 2 51 7 18 12 54
12 80 0 58 -18 62 -55 13 -22 -30 -24 -37 -14 -60 11 -23 9 -29 -11 -51 -55
-59 -110 4 -60 68 11 14 20 31 20 39 0 22 21 38 49 38 25 1 25 1 7 15 -38 29
-65 19 -87 -30 -25 -56 -80 -115 -108 -115 -24 0 -61 33 -61 54 0 24 40 64 71
71 19 4 34 16 39 30 9 24 42 41 60 30 5 -3 10 1 10 10 0 9 7 29 15 45 17 34 7
41 -13 10 -11 -18 -19 -20 -65 -14 -28 4 -55 12 -60 18 -11 16 1 69 19 82 18
14 54 7 61 -12z m781 -183 c45 -10 84 -20 87 -23 3 -3 0 -19 -6 -36 -10 -29
-15 -32 -52 -32 -48 0 -141 40 -150 64 -9 23 2 46 22 46 9 0 53 -9 99 -19z
m457 -60 c-19 -37 -68 -65 -98 -55 -28 9 -37 22 -37 56 0 30 3 31 95 46 58 9
65 0 40 -47z m-1085 -28 c0 -21 -3 -24 -9 -14 -5 8 -7 20 -4 28 8 21 13 15 13
-14z m1140 -2 c0 -39 -99 -97 -152 -89 -40 6 -30 25 15 32 30 5 57 18 83 41
45 40 54 42 54 16z m-624 -23 c-1 -13 -12 -39 -24 -58 -26 -41 -28 -70 -7
-110 21 -40 53 -60 96 -60 45 0 76 33 85 91 10 59 26 76 58 61 33 -15 33 -42
1 -80 -23 -28 -24 -33 -15 -82 6 -29 10 -54 10 -55 0 -1 -21 9 -47 21 -59 29
-154 48 -210 41 l-43 -5 0 78 c0 90 29 159 71 171 13 4 25 7 26 8 1 1 0 -9 -1
-21z m117 1 c45 -9 57 -16 57 -30 0 -23 -3 -23 -42 -3 -17 9 -50 16 -74 17
-37 0 -44 3 -44 20 0 15 5 18 23 13 12 -3 48 -11 80 -17z m-98 -59 c-8 -16
-15 -40 -15 -55 0 -26 -6 -30 -29 -16 -27 17 16 99 52 101 4 0 1 -13 -8 -30z
m98 24 c3 -4 0 -19 -8 -35 -9 -16 -19 -43 -23 -62 -7 -32 -8 -33 -39 -25 -28
7 -33 13 -33 39 0 16 7 43 15 59 12 24 22 30 49 30 18 0 35 -3 39 -6z m32 -46
c-10 -46 -28 -81 -44 -86 -11 -4 -12 3 -7 34 8 43 31 84 47 84 7 0 8 -12 4
-32z m550 11 c33 -16 44 -43 51 -126 7 -79 6 -79 -22 -98 -16 -10 -57 -24 -93
-32 -42 -9 -81 -25 -113 -48 l-48 -35 0 61 c0 51 -4 66 -25 91 -29 34 -32 60
-9 83 22 21 39 6 69 -61 29 -65 54 -81 106 -65 80 24 104 116 49 186 -49 62
-35 78 35 44z m-75 -4 c0 -10 -10 -15 -32 -15 -18 0 -51 -11 -73 -25 -48 -29
-55 -30 -55 -7 0 12 17 24 58 38 71 26 102 29 102 9z m37 -60 c25 -28 27 -55
6 -62 -6 -2 -16 12 -23 31 -6 19 -18 40 -27 48 -15 12 -15 10 -1 -17 32 -63
31 -80 -7 -98 -28 -13 -35 -14 -35 -3 0 7 -11 34 -25 60 -30 57 -30 55 -2 65
40 16 89 5 114 -24z m-126 -41 c28 -48 33 -74 15 -74 -16 0 -68 94 -58 105 10
10 27 -1 43 -31z m-511 11 c23 -8 55 -15 71 -15 33 0 38 -15 10 -30 -36 -18
-76 -12 -104 18 -24 25 -34 42 -23 42 2 0 23 -7 46 -15z m652 -72 c-28 -52
-88 -73 -123 -43 -13 11 -17 18 -9 15 8 -3 42 8 75 24 33 15 61 27 63 25 2 -1
-1 -11 -6 -21z m-599 -83 c32 -25 51 -81 43 -125 -5 -25 -3 -36 10 -43 14 -8
12 -15 -20 -58 -63 -86 -58 -84 -141 -84 -90 0 -143 21 -200 80 l-38 39 24 48
c49 98 192 125 284 54 19 -15 19 -15 5 3 -21 26 -72 46 -120 46 -29 0 -40 4
-40 15 0 28 80 19 133 -14 25 -17 44 -24 41 -17 -6 14 -83 56 -105 56 -11 0
-11 2 1 10 27 17 95 11 123 -10z m642 -46 c12 -5 13 -9 4 -14 -6 -4 9 -5 35
-3 65 8 58 -10 -13 -31 -36 -11 -68 -28 -82 -44 -18 -20 -19 -22 -4 -10 55 46
154 61 218 34 41 -17 87 -70 87 -100 0 -33 -63 -101 -122 -130 -39 -19 -67
-26 -113 -26 l-61 0 -59 60 c-41 41 -54 60 -42 60 16 0 17 7 11 65 -5 52 -3
69 10 90 27 41 91 64 131 49z"/>
<path d="M2435 3804 c-44 -8 -103 -25 -132 -38 -46 -22 -53 -29 -64 -68 -14
-54 -6 -229 16 -313 28 -109 66 -125 315 -132 216 -6 471 17 537 48 73 35 107
118 119 284 10 145 -12 177 -148 211 -93 23 -533 29 -643 8z m516 -5 c125 -16
214 -44 240 -77 20 -25 21 -35 15 -127 -10 -183 -47 -261 -133 -288 -107 -34
-574 -49 -688 -23 -65 16 -110 54 -102 87 3 11 2 17 -3 14 -22 -14 -40 287
-18 327 10 20 71 50 138 68 99 27 409 38 551 19z"/>
<path d="M2474 3740 c-34 -13 -72 -71 -85 -128 -18 -74 1 -151 47 -196 31 -30
37 -32 79 -26 25 4 53 14 63 23 10 10 22 14 27 10 4 -5 5 -2 1 5 -4 6 -3 12 2
12 16 0 41 132 33 176 -19 102 -91 155 -167 124z m103 -32 c34 -38 43 -64 43
-127 0 -70 -12 -106 -48 -143 -68 -72 -162 1 -162 126 0 122 104 212 167 144z"/>
<path d="M2538 3621 c3 -22 -1 -32 -18 -41 -12 -6 -28 -9 -36 -6 -21 8 -27
-16 -14 -63 24 -89 110 -52 110 47 0 44 -20 92 -39 92 -4 0 -6 -13 -3 -29z"/>
<path d="M2885 3738 c-58 -34 -90 -113 -82 -201 10 -106 45 -147 125 -147 49
0 95 35 117 87 17 41 20 139 5 178 -6 15 -6 24 -1 20 5 -3 13 0 17 6 4 8 3 9
-4 5 -6 -4 -19 3 -29 14 -38 46 -105 63 -148 38z m121 -44 c72 -94 21 -284
-75 -284 -61 0 -101 61 -101 152 1 140 109 221 176 132z"/>
<path d="M2957 3627 c6 -32 -23 -60 -53 -53 -21 6 -24 3 -24 -24 0 -84 62
-120 100 -57 24 38 26 87 5 127 -19 36 -34 39 -28 7z"/>
<path d="M2922 3208 c8 -7 20 -22 26 -33 9 -17 11 -17 12 -3 0 19 -26 48 -43
48 -6 0 -4 -6 5 -12z"/>
<path d="M2574 3175 c-10 -26 1 -35 13 -10 6 14 7 25 2 25 -5 0 -12 -7 -15
-15z"/>
<path d="M2877 3162 c-68 -35 -157 -40 -226 -13 -30 11 -56 19 -59 17 -7 -8
67 -57 99 -66 79 -23 168 -1 218 54 14 14 23 27 20 29 -2 1 -25 -8 -52 -21z"/>
<path d="M2455 2786 c-27 -20 -15 -51 20 -51 23 0 31 5 33 22 4 29 -28 47 -53
29z"/>
<path d="M2050 1890 c-19 -5 -13 -7 23 -7 52 0 85 -18 121 -66 26 -36 15 -44
-42 -29 -80 21 -137 54 -134 77 2 19 2 19 -9 2 -15 -25 9 -59 56 -81 37 -18
138 -26 152 -12 4 4 -2 24 -13 44 -33 56 -100 88 -154 72z"/>
<path d="M2896 1951 c-27 -18 -53 -50 -44 -54 1 -1 20 15 41 36 43 42 44 45 3
18z"/>
<path d="M3000 1813 c-24 -23 -43 -51 -46 -70 -6 -31 -5 -33 22 -33 81 0 178
61 172 108 -2 14 -10 27 -18 29 -13 4 -13 3 0 -6 12 -8 11 -14 -9 -35 -13 -14
-33 -28 -43 -32 -10 -3 -15 -10 -12 -16 4 -7 2 -8 -4 -4 -6 4 -29 -2 -51 -14
-52 -26 -55 -25 -46 8 8 34 41 71 80 88 19 8 24 13 12 14 -10 0 -36 -17 -57
-37z"/>
</g>
</svg>
